<?xml version="1.0" standalone="no"?>
<!DOCTYPE svg PUBLIC "-//W3C//DTD SVG 20010904//EN"
 "http://www.w3.org/TR/2001/REC-SVG-20010904/DTD/svg10.dtd">
<svg version="1.0" xmlns="http://www.w3.org/2000/svg"
 width="1280.000000pt" height="787.000000pt" viewBox="0 0 1280.000000 787.000000"
 preserveAspectRatio="xMidYMid meet">

<g transform="translate(0.000000,787.000000) scale(0.100000,-0.100000)"
fill="#000000" stroke="none">
<path d="M0 3935 l0 -3935 6400 0 6400 0 0 3935 0 3935 -6400 0 -6400 0 0
-3935z m2120 3664 c70 -88 71 -92 53 -109 -20 -19 -1021 -895 -1348 -1180
-110 -96 -265 -232 -344 -303 l-145 -128 -82 88 c-46 48 -83 91 -84 95 0 10
45 51 315 284 127 109 329 284 450 389 121 105 337 292 480 415 142 124 340
296 440 382 99 86 183 157 186 157 4 1 39 -40 79 -90z m3888 -1211 l2 -1278
433 -2 432 -3 3 -122 3 -123 -513 0 c-282 0 -537 3 -565 6 l-53 7 0 1399 0
1399 128 -3 127 -3 3 -1277z m-1303 1137 l0 -120 -1020 0 -1020 0 -3 123 -3
122 1023 -2 1023 -3 0 -120z m-830 -1270 l0 -120 -482 -3 -483 -2 0 -500 0
-500 883 -2 882 -3 3 -132 3 -133 -949 0 c-522 0 -977 3 -1011 6 l-61 7 0 735
c0 672 1 737 17 754 15 17 45 18 607 16 l591 -3 0 -120z m-2420 -590 c369
-471 500 -640 500 -648 0 -11 -165 -137 -179 -137 -6 0 -48 49 -93 108 -46 59
-152 197 -236 307 -302 395 -330 430 -356 458 l-26 28 34 26 c18 14 56 45 84
69 29 24 57 42 64 41 6 -1 100 -114 208 -252z m10044 -223 c10 -20 56 -120
101 -222 45 -102 101 -228 125 -280 40 -92 277 -618 450 -1000 46 -102 174
-387 285 -635 111 -247 218 -485 238 -528 26 -57 33 -83 26 -94 -16 -26 -191
-103 -202 -90 -8 10 -576 1238 -824 1782 -55 119 -88 190 -167 358 -28 60 -54
119 -57 133 -9 34 -29 30 -45 -8 -7 -18 -90 -195 -185 -393 l-172 -360 241 -5
241 -5 49 -107 c27 -59 46 -112 42 -118 -8 -13 -945 -14 -945 -1 0 8 117 259
253 541 114 238 411 859 459 963 28 59 55 107 59 107 5 0 17 -17 28 -38z
m-2462 -52 c43 -6 96 -17 118 -24 22 -8 59 -17 82 -20 23 -3 54 -12 70 -20 15
-8 39 -19 53 -25 112 -47 261 -151 358 -251 74 -75 192 -219 192 -234 0 -3 12
-22 26 -43 56 -82 141 -286 154 -371 5 -30 17 -78 27 -106 15 -44 18 -88 18
-306 0 -236 -2 -261 -23 -340 -48 -174 -65 -223 -118 -335 -13 -28 -24 -55
-24 -61 0 -6 -9 -19 -21 -30 -12 -10 -28 -32 -36 -49 -48 -93 -266 -331 -350
-382 -16 -10 -47 -30 -69 -44 -90 -59 -185 -103 -307 -141 l-102 -32 -470 -3
c-258 -2 -479 -2 -491 1 -50 13 -55 29 -48 149 6 85 11 115 23 124 12 9 123
12 442 13 391 0 431 2 500 20 41 11 82 20 92 20 11 0 33 6 50 14 18 8 49 22
69 30 21 8 83 43 138 77 189 116 358 341 423 564 8 28 24 82 36 121 18 62 21
95 21 277 0 177 -3 218 -21 284 -39 150 -55 194 -112 308 -78 156 -163 261
-289 358 -78 59 -240 147 -273 147 -11 0 -49 9 -83 20 -56 18 -92 20 -308 20
-225 0 -244 1 -253 18 -17 31 -21 208 -6 229 14 19 8 18 377 31 31 1 92 -3
135 -8z m-5468 -2526 c22 -47 41 -88 41 -91 0 -3 18 -45 39 -92 81 -178 275
-610 446 -991 98 -217 209 -465 247 -550 39 -85 116 -258 173 -385 57 -126
140 -310 184 -409 64 -140 79 -181 70 -192 -12 -14 -174 -94 -190 -94 -10 0
-34 45 -114 220 -173 375 -351 762 -420 910 -42 91 -127 273 -187 405 -160
350 -197 431 -265 575 -27 58 -58 126 -68 153 -10 26 -21 47 -25 47 -4 0 -44
-78 -88 -173 -45 -95 -128 -271 -186 -391 -58 -120 -106 -222 -106 -227 0 -5
108 -10 240 -11 l241 -3 44 -99 c25 -55 45 -105 45 -112 0 -11 -88 -14 -466
-16 -256 -2 -470 0 -475 3 -5 3 32 91 82 195 50 104 180 376 289 604 317 664
388 810 398 810 5 0 28 -39 51 -86z m2141 -1234 l0 -1280 435 0 435 0 0 -120
0 -120 -502 0 c-277 0 -527 3 -555 6 l-53 7 0 1393 0 1394 120 0 120 0 0
-1280z"/>
</g>
</svg>
