<?xml version="1.0" standalone="no"?>
<!DOCTYPE svg PUBLIC "-//W3C//DTD SVG 20010904//EN"
 "http://www.w3.org/TR/2001/REC-SVG-20010904/DTD/svg10.dtd">
<svg version="1.0" xmlns="http://www.w3.org/2000/svg"
 width="1280.000000pt" height="782.000000pt" viewBox="0 0 1280.000000 782.000000"
 preserveAspectRatio="xMidYMid meet">

<g transform="translate(0.000000,782.000000) scale(0.100000,-0.100000)"
fill="#000000" stroke="none">
<path d="M2025 7293 c-52 -48 -194 -171 -550 -479 -44 -38 -125 -108 -180
-154 -55 -46 -174 -151 -265 -231 -91 -81 -223 -197 -295 -259 -71 -62 -185
-160 -252 -218 -68 -58 -123 -112 -123 -118 0 -20 104 -134 122 -134 17 0 403
330 648 555 36 33 132 116 214 185 193 162 324 275 505 435 81 72 197 172 259
224 62 52 112 99 112 103 0 16 -110 148 -123 148 -7 -1 -39 -26 -72 -57z"/>
<path d="M5646 7321 c-5 -7 -9 -2102 -6 -2548 l0 -33 499 0 c275 0 502 4 505
8 8 13 11 161 4 168 -4 3 -184 6 -400 5 -241 -1 -399 3 -408 9 -13 8 -15 153
-17 1192 -1 651 -2 1189 -2 1196 -1 14 -166 18 -175 3z"/>
<path d="M2720 7308 c-18 -6 -20 -16 -20 -82 0 -53 4 -79 15 -90 14 -13 122
-15 936 -11 608 2 925 7 931 13 17 17 23 149 8 167 -12 14 -108 16 -932 13
-505 -1 -927 -6 -938 -10z"/>
<path d="M2732 6102 c-10 -7 -12 -151 -10 -688 l3 -679 915 -2 c565 -2 921 1
930 7 12 7 14 26 12 87 -2 42 -8 83 -13 90 -9 10 -181 12 -822 13 -546 0 -815
4 -822 11 -13 13 -19 938 -5 959 8 13 65 15 438 11 505 -4 464 -14 460 113
l-3 81 -535 2 c-294 2 -541 -1 -548 -5z"/>
<path d="M1294 5651 c-91 -68 -99 -77 -89 -99 6 -12 63 -88 127 -169 150 -190
167 -211 290 -373 167 -219 210 -270 227 -270 9 0 41 20 71 45 30 25 58 45 62
45 5 0 8 10 8 23 0 14 -33 64 -85 128 -47 57 -101 124 -120 149 -100 130 -205
262 -254 323 -31 37 -73 91 -94 120 -49 66 -85 107 -96 107 -4 0 -26 -13 -47
-29z"/>
<path d="M11153 5223 c-20 -49 -49 -113 -113 -248 -29 -60 -85 -182 -125 -270
-40 -88 -98 -212 -128 -275 -30 -63 -82 -173 -115 -245 -33 -71 -85 -183 -116
-249 -32 -65 -56 -126 -54 -135 3 -14 45 -16 409 -19 332 -2 408 0 418 11 8
11 5 29 -15 78 -42 105 -25 98 -278 101 l-221 3 2 25 c0 14 54 140 118 280
159 349 202 442 208 462 3 9 15 22 26 28 18 9 24 6 41 -22 11 -18 20 -37 20
-43 0 -9 53 -126 208 -455 52 -110 132 -289 132 -294 0 -3 24 -56 53 -118 70
-147 87 -185 87 -191 0 -3 27 -61 59 -129 91 -190 131 -276 131 -283 0 -3 17
-43 39 -88 21 -45 55 -120 75 -167 20 -47 45 -103 56 -125 10 -22 37 -80 60
-130 22 -49 44 -97 49 -105 14 -25 56 -22 112 8 45 24 54 34 57 60 2 17 -3 41
-11 54 -8 13 -58 120 -111 238 -53 118 -103 229 -110 245 -8 17 -29 64 -49
105 -19 41 -47 102 -62 135 -14 33 -32 74 -40 90 -7 17 -32 69 -54 116 -23 47
-41 88 -41 92 0 3 -20 48 -44 99 -58 122 -153 335 -261 583 -48 110 -91 205
-95 210 -4 6 -27 55 -50 110 -23 55 -48 111 -55 125 -24 45 -93 197 -100 221
-4 13 -11 29 -15 34 -4 6 -10 24 -14 40 -10 41 -33 75 -52 75 -8 0 -22 -17
-31 -37z"/>
<path d="M8253 5180 c-21 -9 -23 -16 -23 -87 0 -43 4 -83 8 -90 5 -8 78 -12
247 -15 246 -3 260 -5 397 -53 63 -22 198 -108 263 -167 144 -132 262 -322
324 -525 39 -126 54 -308 39 -483 -27 -325 -195 -620 -452 -795 -103 -71 -205
-115 -341 -148 -22 -5 -197 -12 -390 -16 l-350 -6 -3 -75 c-2 -41 0 -90 3
-108 l6 -33 352 3 352 4 120 32 c286 78 515 245 680 498 97 148 151 283 201
499 15 64 19 118 18 270 -1 168 -4 203 -28 305 -36 157 -59 226 -111 333 -74
151 -158 268 -267 373 -62 61 -202 157 -273 189 -27 13 -71 32 -97 44 -26 11
-62 21 -80 21 -18 1 -51 8 -73 17 -31 12 -92 16 -270 19 -135 2 -239 0 -252
-6z"/>
<path d="M3803 3038 c-5 -7 -45 -89 -87 -183 -43 -93 -87 -186 -97 -205 -10
-19 -32 -69 -50 -110 -30 -71 -58 -132 -154 -335 -24 -49 -69 -146 -100 -215
-32 -69 -84 -180 -116 -247 -33 -68 -60 -133 -62 -145 l-2 -23 406 -3 c335 -2
408 0 418 12 9 10 4 30 -18 86 -17 40 -36 77 -43 82 -7 5 -100 7 -210 3 -122
-3 -206 -1 -223 5 -32 12 -32 11 45 180 207 451 260 570 260 579 0 14 37 51
51 51 5 0 17 -17 25 -37 16 -38 113 -252 159 -348 68 -143 165 -354 165 -360
0 -3 20 -47 44 -98 24 -50 62 -135 86 -187 38 -87 120 -266 190 -415 16 -33
42 -91 58 -130 17 -38 58 -131 92 -205 33 -74 69 -152 78 -173 66 -149 108
-222 129 -225 12 -2 46 11 77 28 48 27 56 36 56 61 0 16 -11 50 -24 76 -32 62
-103 213 -156 333 -23 52 -64 141 -91 198 -27 56 -49 105 -49 108 0 6 -47 110
-62 138 -5 10 -26 55 -45 100 -39 92 -139 316 -188 421 -48 103 -74 160 -165
370 -45 105 -97 222 -115 260 -42 88 -70 151 -130 290 -26 61 -56 128 -66 151
-10 23 -19 45 -19 49 0 4 -7 22 -16 41 -17 35 -35 43 -51 22z"/>
<path d="M5740 2991 l-65 -6 -3 -1270 c-1 -698 0 -1280 3 -1293 l5 -22 488 0
c268 0 492 4 499 8 15 10 21 148 7 162 -8 8 -132 11 -399 10 -279 0 -391 3
-401 11 -12 10 -14 197 -14 1204 0 1079 -2 1193 -16 1199 -9 3 -21 5 -27 4 -7
-1 -41 -4 -77 -7z"/>
</g>
</svg>
